<?xml version="1.0" encoding="utf-8"?>
<!-- Generator: Adobe Illustrator 21.0.0, SVG Export Plug-In . SVG Version: 6.00 Build 0)  -->
<svg version="1.1" id="Layer_1" xmlns="http://www.w3.org/2000/svg" xmlns:xlink="http://www.w3.org/1999/xlink" x="0px" y="0px"
	 width="1980px" height="1080px" viewBox="0 0 1980 1080" style="enable-background:new 0 0 1980 1080;" xml:space="preserve">
<style type="text/css">
	.st0{fill:url(#SVGID_1_);}
	.st1{fill:#074937;stroke:#074937;stroke-width:3;stroke-miterlimit:10;}
	.st2{fill:#074937;stroke:#074937;stroke-width:3;stroke-miterlimit:10;}
	.st3{fill:#000D23;}
	.st4{fill:#000E28; stroke:#000E28;}
	.st5{fill:none;}
	.st6{fill:#CCCAC9;stroke:#CCCAC9;stroke-miterlimit:10;}
	.st7{fill:#074937;}
	.st8{fill:#064433;}
</style>
<g>
	
		<radialGradient id="SVGID_1_" cx="938.6682" cy="131" r="1509.0394" gradientTransform="matrix(1.0051 0 0 1 -14.8175 940)" gradientUnits="userSpaceOnUse">
		<stop  offset="0" style="stop-color:#7E3D02"/>
		<stop  offset="0.4649" style="stop-color:#000D23"/>
		<stop  offset="1" style="stop-color:#0A1120"/>
		<stop  offset="1" style="stop-color:#091225"/>
		<stop  offset="1" style="stop-color:#06183B"/>
		<stop  offset="1" style="stop-color:#031C4C"/>
		<stop  offset="1" style="stop-color:#011F57"/>
		<stop  offset="1" style="stop-color:#00215E"/>
		<stop  offset="1" style="stop-color:#002160"/>
	</radialGradient>
	<path class="st0" d="M1989-90v955.1c-109.8-5.3-220-5.1-330-2.9c-150.3,3.1-302.2,10.1-445.7,42.9c-44.9,10.3-89.1,23.3-131.1,39.2
		c-86.8,32.8-164.6,77.8-220.7,135.7H-9.1V-90H1989z"/>
</g>
<path class="st1" d="M1086.9,944.3c-86.4,32.8-163.8,77.8-219.6,135.7H1V907.3c24.8-13.2,53.2-23,82.6-29.1
	c63.4-13.1,131-10.5,196-2.5c83.4,10.2,164.9,29,241.3,55.8c9.2,3.2,18.2,6.5,27.2,9.9c50.6,19.3,99.5,42.2,154.8,52.2
	c117,21.1,235.8-19.3,351.9-43.2C1065.5,948.2,1076.2,946.2,1086.9,944.3z"/>
<path class="st2" d="M1989,865.1V1080H867.3c55.8-57.9,133.1-102.9,219.6-135.7c41.8-15.9,85.8-28.9,130.4-39.2
	c39.9-9.2,80.5-16.3,121.6-21.9c105.6-14.5,214.2-18.7,321.8-21C1770.1,860,1879.8,859.7,1989,865.1z"/>
<path class="st3" d="M957.6,972.5C873,992,787.5,1008.9,703,993.6c-55.3-10-104.3-33-154.8-52.2c-9-3.4-18.1-6.7-27.2-9.9l137-126.2
	l114.2-105.2l85.4-78.7l1.5-1.4l20.4-18.8l10.6-9.7l64.7-59.6l0.6,94.5l0.2,27l0.2,38l0.2,28.9v2.9L957.6,972.5z"/>
<path class="st4" d="M1338.9,883.2c-41,5.6-81.6,12.8-121.6,21.9c-44.7,10.3-88.6,23.3-130.4,39.2c-10.7,1.9-21.3,4-32,6.2
	c-32.2,6.6-64.7,14.6-97.3,22.1L956,723.1v-2.9l-0.2-28.9l-0.2-38l-0.2-27l-0.6-94.5l0,0l1.4-1.3l61.4,56.5l31.7,29.2l10.7,9.9
	l24.2,22.3l11.6,10.7l158.6,146.1L1338.9,883.2z"/>
<line class="st5" x1="954.8" y1="531.9" x2="954.8" y2="531.8"/>
<polygon class="st6" points="1095.8,659.1 1072.8,645.9 991.9,780.3 955.5,653.3 951,637.5 950.7,636.5 771.3,701.2 772.1,700.1 
	857.5,621.4 859,620 879.5,601.2 890,591.5 954.4,532.2 954.8,531.9 954.8,531.8 956.2,530.6 1017.5,587.1 1049.3,616.3 1060,626.2 
	1084.2,648.5 "/>
<polygon class="st7" points="1246.1,1047.8 1223.6,1047.7 1201,1047.6 1212.5,1014 1224,980.4 1235.1,1014.1 "/>
<polygon class="st7" points="1865.2,1046.7 1841.1,1046.6 1817,1046.5 1829.3,1010.6 1841.5,974.8 1853.4,1010.7 "/>
<polygon class="st7" points="1679.7,1042.8 1656.5,1042.7 1633.3,1042.7 1645.1,1008.2 1656.9,973.7 1668.3,1008.2 "/>
<polygon class="st7" points="1452.2,1052 1427,1051.9 1401.9,1051.8 1414.7,1014.3 1427.5,976.9 1439.9,1014.4 "/>
<polygon class="st7" points="1744.6,949.7 1732.7,949.6 1720.8,949.6 1726.8,931.8 1732.9,914.1 1738.8,931.9 "/>
<polygon class="st7" points="1608.3,914.2 1601.6,914.2 1594.9,914.2 1598.3,904.2 1601.7,894.3 1605,904.3 "/>
<polygon class="st7" points="1488.3,895.9 1483.3,895.9 1478.4,895.9 1480.9,888.5 1483.4,881.2 1485.8,888.5 "/>
<polygon class="st7" points="1866.7,946.6 1854.8,946.6 1842.8,946.5 1848.9,928.8 1855,911 1860.9,928.8 "/>
<polygon class="st7" points="1755.5,888.9 1749.9,888.9 1744.2,888.9 1747.1,880.4 1750,872 1752.7,880.5 "/>
<polygon class="st7" points="1353.4,964 1341.5,963.9 1329.5,963.9 1335.6,946.1 1341.7,928.3 1347.6,946.1 "/>
<polygon class="st7" points="1450.5,954.8 1438.6,954.7 1426.6,954.7 1432.7,936.9 1438.8,919.2 1444.7,937 "/>
<polygon class="st7" points="1571.1,999.6 1551.7,999.6 1532.2,999.5 1542.1,970.6 1552,941.6 1561.6,970.6 "/>
<polygon class="st8" points="88.5,1038.5 75.5,1038.5 62.5,1038.5 69.1,1020.2 75.7,1001.9 82.1,1020.2 "/>
<polygon class="st8" points="282.5,1038.6 269.5,1038.5 256.5,1038.5 263.1,1020.2 269.8,1001.9 276.1,1020.3 "/>
<polygon class="st8" points="526.2,1045 513.2,1044.9 500.2,1044.9 506.8,1026.6 513.4,1008.3 519.8,1026.6 "/>
<polygon class="st8" points="377.6,1014.7 364.6,1014.6 351.6,1014.6 358.2,996.3 364.8,978 371.2,996.4 "/>
<polygon class="st8" points="441.8,978.1 433.1,978.1 424.4,978 428.8,965.8 433.2,953.6 437.5,965.8 "/>
<polygon class="st8" points="296.2,978.1 287.5,978 278.8,978 283.2,965.8 287.6,953.5 291.9,965.8 "/>
<polygon class="st8" points="530.7,976 522,976 513.3,975.9 517.8,963.7 522.2,951.5 526.5,963.7 "/>
<polygon class="st8" points="395.3,972.5 386.5,972.4 377.8,972.4 382.3,960.2 386.7,947.9 391,960.2 "/>
<polygon class="st8" points="156.6,987.9 147.9,987.9 139.2,987.8 143.6,975.6 148.1,963.4 152.4,975.6 "/>
<polygon class="st8" points="227.4,981.6 218.7,981.6 210,981.5 214.4,969.3 218.9,957 223.1,969.3 "/>
<polygon class="st8" points="322.5,999.9 313.8,999.9 305,999.8 309.5,987.6 313.9,975.3 318.2,987.6 "/>
<polygon class="st8" points="202.6,1026.6 189.6,1026.6 176.6,1026.5 183.3,1008.2 189.9,990 196.3,1008.3 "/>
</svg>
