<?xml version="1.0" encoding="utf-8"?>
<!-- Generator: Adobe Illustrator 21.0.0, SVG Export Plug-In . SVG Version: 6.00 Build 0)  -->
<svg version="1.1" id="Layer_1" xmlns="http://www.w3.org/2000/svg" xmlns:xlink="http://www.w3.org/1999/xlink" x="0px" y="0px"
	 width="400px" height="800px" viewBox="0 0 400 800" style="enable-background:new 0 0 400 800;" xml:space="preserve">
<style type="text/css">
	.st0{fill:url(#SVGID_1_);}
	.st1{fill:#074937;stroke:#074937;stroke-width:3;stroke-miterlimit:10;}
	.st2{fill:#074937;stroke:#074937;stroke-width:3;stroke-miterlimit:10;}
	.st3{fill:#000D23;}
	.st4{fill:#000E28;stroke:#000E28;}
	.st5{fill:none;}
	.st6{fill:#CCCAC9;stroke:#CCCAC9;stroke-miterlimit:10;}
	.st7{fill:#074937;}
	.st8{fill:#064433;}
</style>
<g>
	
		<radialGradient id="SVGID_1_" cx="2600.1392" cy="969.981" r="1509.0394" gradientTransform="matrix(0.2215 0 0 -0.8825 -394.1688 1874.6028)" gradientUnits="userSpaceOnUse">
		<stop  offset="0" style="stop-color:#7E3D02"/>
		<stop  offset="0.4649" style="stop-color:#000D23"/>
		<stop  offset="1" style="stop-color:#0A1120"/>
		<stop  offset="1" style="stop-color:#091225"/>
		<stop  offset="1" style="stop-color:#06183B"/>
		<stop  offset="1" style="stop-color:#031C4C"/>
		<stop  offset="1" style="stop-color:#011F57"/>
		<stop  offset="1" style="stop-color:#00215E"/>
		<stop  offset="1" style="stop-color:#002160"/>
	</radialGradient>
	<path class="st0" d="M415.6-6v842.9c-24.2-4.7-48.5-4.5-72.7-2.6c-33.1,2.7-66.6,8.9-98.2,37.9c-9.9,9.1-19.6,20.6-28.9,34.6
		c-19.1,28.9-36.3,68.7-48.6,119.8H-24.8V-6H415.6z"/>
</g>
<path class="st1" d="M216.8,750.7c-19,13.8-36.1,32.7-48.4,57h-191v-72.5c5.5-5.5,11.7-9.7,18.2-12.2c14-5.5,28.9-4.4,43.2-1
	c18.4,4.3,36.3,12.2,53.2,23.4c2,1.3,4,2.7,6,4.2c11.2,8.1,21.9,17.7,34.1,21.9c25.8,8.9,52-8.1,77.6-18.1
	C212.1,752.4,214.4,751.5,216.8,750.7z"/>
<path class="st2" d="M415.6,717.5v90.2H168.4c12.3-24.3,29.3-43.2,48.4-57c9.2-6.7,18.9-12.1,28.7-16.5c8.8-3.9,17.7-6.8,26.8-9.2
	c23.3-6.1,47.2-7.8,70.9-8.8C367.4,715.4,391.5,715.2,415.6,717.5z"/>
<path class="st3" d="M188.3,762.6c-18.6,8.2-37.5,15.3-56.1,8.9c-12.2-4.2-23-13.8-34.1-21.9c-2-1.4-4-2.8-6-4.2l30.2-53l25.2-44.2
	l18.8-33l0.3-0.6l4.5-7.9l2.3-4.1l14.3-25l0.1,39.7l0,11.3l0,15.9l0,12.1v1.2L188.3,762.6z"/>
<path class="st4" d="M272.3,725.1c-9,2.4-18,5.4-26.8,9.2c-9.9,4.3-19.5,9.8-28.7,16.5c-2.4,0.8-4.7,1.7-7.1,2.6
	c-7.1,2.8-14.3,6.1-21.4,9.3l-0.4-104.7v-1.2l0-12.1l0-15.9l0-11.3l-0.1-39.7l0,0l0.3-0.5l13.5,23.7l7,12.3l2.4,4.2l5.3,9.4l2.6,4.5
	l35,61.3L272.3,725.1z"/>
<line class="st5" x1="187.7" y1="426.5" x2="187.7" y2="426.5"/>
<polygon class="st6" points="218.7,631.1 213.7,625.5 195.8,681.9 187.8,628.6 186.8,622 186.8,621.6 147.2,648.7 147.4,648.3 
	166.2,615.2 166.5,614.6 171.1,606.8 173.4,602.7 187.6,577.8 187.7,577.7 187.7,577.6 188,577.1 201.5,600.8 208.5,613.1 
	210.8,617.2 216.2,626.6 "/>
<polygon class="st7" points="251.9,785.3 246.9,785.2 241.9,785.2 244.5,761.8 247,738.4 249.4,761.9 "/>
<polygon class="st7" points="388.3,784.5 383,784.5 377.7,784.4 380.4,759.4 383.1,734.5 385.7,759.5 "/>
<polygon class="st7" points="347.4,781.8 342.3,781.8 337.2,781.8 339.8,757.8 342.4,733.8 344.9,757.8 "/>
<polygon class="st7" points="297.3,788.2 291.7,788.2 286.2,788.1 289,762 291.8,736 294.6,762.1 "/>
<polygon class="st7" points="361.7,757 359.1,756.9 356.5,756.9 357.8,744.5 359.2,732.2 360.5,744.6 "/>
<polygon class="st7" points="330.2,736.8 328.7,736.8 327.3,736.8 328,729.9 328.8,723 329.5,729.9 "/>
<polygon class="st7" points="288.4,735 287.3,735 286.2,735 286.8,729.9 287.3,724.8 287.8,729.9 "/>
<polygon class="st7" points="377.7,743.9 375.1,743.9 372.4,743.8 373.8,731.5 375.1,719.2 376.4,731.5 "/>
<polygon class="st7" points="352.6,728.9 351.3,728.9 350.1,728.9 350.7,723 351.4,717.1 352,723 "/>
<polygon class="st7" points="275,763.5 272.3,763.4 269.7,763.4 271,751 272.4,738.6 273.7,751 "/>
<polygon class="st7" points="306.8,754.7 304.2,754.6 301.5,754.6 302.9,742.2 304.2,729.9 305.5,742.3 "/>
<polygon class="st7" points="321.5,777.7 317.3,777.7 313,777.6 315.1,757.5 317.3,737.4 319.4,757.5 "/>
<polygon class="st8" points="-30.8,798.1 -34.7,798.1 -38.5,798.1 -36.6,785 -34.6,772 -32.7,785 "/>
<polygon class="st8" points="26.7,798.2 22.8,798.1 19,798.1 20.9,785 22.9,772 24.8,785.1 "/>
<polygon class="st8" points="93.2,783.4 90.3,783.3 87.5,783.3 88.9,770.6 90.4,757.8 91.8,770.6 "/>
<polygon class="st8" points="54.9,781.1 51,781.1 47.1,781.1 49.1,768 51.1,755 53,768.1 "/>
<polygon class="st8" points="73.9,755 71.3,755 68.7,755 70,746.3 71.3,737.6 72.6,746.3 "/>
<polygon class="st8" points="30.7,755 28.1,755 25.6,755 26.9,746.3 28.2,737.5 29.5,746.3 "/>
<polygon class="st8" points="20.9,740.1 19,740.1 17,740 18,731.5 19,723 20,731.5 "/>
<polygon class="st8" points="60.1,751.1 57.5,751 54.9,751 56.2,742.3 57.5,733.5 58.8,742.3 "/>
<polygon class="st8" points="-10.6,762 -13.2,762 -15.8,762 -14.5,753.3 -13.2,744.6 -11.9,753.3 "/>
<polygon class="st8" points="10.3,757.5 7.8,757.5 5.2,757.5 6.5,748.8 7.8,740 9.1,748.8 "/>
<polygon class="st8" points="38.5,770.6 35.9,770.6 33.3,770.5 34.7,761.8 36,753.1 37.2,761.8 "/>
<polygon class="st8" points="3,789.6 -0.9,789.6 -4.7,789.5 -2.7,776.5 -0.8,763.5 1.1,776.6 "/>
</svg>
